<svg width="321" height="321" viewBox="0 0 321 321" fill="none" xmlns="http://www.w3.org/2000/svg">
<path fill-rule="evenodd" clip-rule="evenodd" d="M105.379 0C47.1797 0 0 47.1797 0 105.379V215.621C0 273.82 47.1797 321 105.379 321H215.621C273.82 321 321 273.82 321 215.621V105.379C321 47.1797 273.82 0 215.621 0H105.379ZM191.077 74.5758C197.913 74.5758 202.669 81.3712 200.322 87.7917C191.391 112.219 182.407 136.593 173.368 160.913C163.631 187.487 153.83 214.125 143.964 240.828C142.538 244.687 138.859 247.249 134.745 247.249C127.901 247.249 123.152 240.43 125.522 234.01C134.538 209.59 143.5 185.224 152.408 160.913C162.278 134.356 172.084 107.735 181.825 81.0495C183.244 77.1628 186.94 74.5758 191.077 74.5758ZM114.432 125.106C114.432 128.994 112.37 132.589 109.016 134.553L99.199 140.301C81.2033 150.837 81.2033 176.849 99.199 187.385L109.056 193.157C112.386 195.106 114.432 198.675 114.432 202.533C114.432 210.891 105.389 216.119 98.1453 211.949L55.574 187.439C37.3668 176.956 37.3446 150.691 55.534 140.178L98.0067 115.629C105.305 111.41 114.432 116.677 114.432 125.106ZM212.03 192.916C208.649 194.873 206.568 198.484 206.568 202.39C206.568 210.812 215.68 216.08 222.978 211.878L265.426 187.439C283.633 176.956 283.655 150.691 265.466 140.178L222.985 115.624C215.691 111.408 206.568 116.672 206.568 125.097C206.568 128.989 208.636 132.588 211.998 134.548L221.68 140.194C239.763 150.739 239.723 176.879 221.609 187.369L212.03 192.916Z" fill="#E73A55"/>
</svg>
